<svg preserveAspectRatio="none" width="100%" height="100%" overflow="visible" style="display: block;" viewBox="0 0 12.5281 12.6666" fill="none" xmlns="http://www.w3.org/2000/svg">
<g id="Container">
<path id="Icon" d="M4.72563 12.6666L4.47179 10.6359C4.29315 10.576 4.11003 10.4923 3.92242 10.3846C3.7348 10.2769 3.56707 10.1615 3.4192 10.0384L1.53844 10.8333L0 8.16665L1.62692 6.93717C1.61153 6.83802 1.60063 6.73845 1.59422 6.63844C1.58781 6.53844 1.58461 6.43887 1.58461 6.33972C1.58461 6.24485 1.58781 6.14848 1.59422 6.05061C1.60063 5.95275 1.61153 5.84569 1.62692 5.72945L0 4.49997L1.53844 1.84616L3.41279 2.63462C3.57348 2.50727 3.74506 2.39081 3.92754 2.28525C4.11003 2.1797 4.2893 2.09486 4.46537 2.03076L4.72563 0H7.80251L8.05636 2.03717C8.25636 2.10982 8.43735 2.19465 8.59931 2.29166C8.76128 2.38867 8.92475 2.50299 9.08971 2.63462L10.9897 1.84616L12.5281 4.49997L10.8756 5.74868C10.8995 5.85638 10.9125 5.95702 10.9147 6.05061C10.9168 6.1442 10.9179 6.23844 10.9179 6.33331C10.9179 6.42391 10.9158 6.516 10.9115 6.60959C10.9072 6.70319 10.8918 6.81024 10.8653 6.93076L12.5051 8.16665L10.9666 10.8333L9.08971 10.032C8.92475 10.1636 8.75637 10.2801 8.58457 10.3814C8.41277 10.4826 8.2367 10.5653 8.05636 10.6294L7.80251 12.6666H4.72563V12.6666M5.5974 11.6666H6.90766L7.1474 9.88074C7.48757 9.79185 7.79847 9.66557 8.08009 9.5019C8.36172 9.33822 8.6333 9.12775 8.89484 8.87049L10.5512 9.56664L11.2077 8.43331L9.76151 7.34356C9.81706 7.17091 9.85488 7.00168 9.87497 6.83587C9.89505 6.67006 9.90509 6.50254 9.90509 6.33331C9.90509 6.1598 9.89505 5.99228 9.87497 5.83075C9.85488 5.66921 9.81706 5.50425 9.76151 5.33587L11.2205 4.23331L10.5641 3.09998L8.88843 3.80639C8.66535 3.56793 8.39804 3.35724 8.0865 3.17434C7.77497 2.99143 7.45979 2.86194 7.14099 2.78587L6.93074 0.999976H5.60766L5.38715 2.77946C5.04698 2.85981 4.73288 2.98288 4.44484 3.14869C4.15681 3.3145 3.88202 3.52818 3.62048 3.78972L1.96407 3.09998L1.30766 4.23331L2.7474 5.30639C2.69185 5.46451 2.65296 5.62903 2.63074 5.79998C2.60852 5.97092 2.5974 6.15083 2.5974 6.33972C2.5974 6.51322 2.60852 6.68331 2.63074 6.84998C2.65296 7.01664 2.68971 7.18117 2.74099 7.34356L1.30766 8.43331L1.96407 9.56664L3.61407 8.86664C3.86706 9.12647 4.13758 9.33929 4.42561 9.5051C4.71364 9.67091 5.03202 9.79827 5.38074 9.88715L5.5974 11.6666V11.6666M6.27176 8.33328C6.82646 8.33328 7.29846 8.13863 7.68777 7.74932C8.07708 7.36001 8.27174 6.888 8.27174 6.33331C8.27174 5.77861 8.07708 5.30661 7.68777 4.9173C7.29846 4.52799 6.82646 4.33333 6.27176 4.33333C5.71023 4.33333 5.23652 4.52799 4.85062 4.9173C4.46473 5.30661 4.27179 5.77861 4.27179 6.33331C4.27179 6.888 4.46473 7.36001 4.85062 7.74932C5.23652 8.13863 5.71023 8.33328 6.27176 8.33328V8.33328M6.26407 6.33331V6.33331V6.33331V6.33331V6.33331V6.33331V6.33331V6.33331V6.33331V6.33331V6.33331V6.33331V6.33331V6.33331V6.33331V6.33331V6.33331V6.33331V6.33331V6.33331V6.33331V6.33331V6.33331V6.33331V6.33331V6.33331V6.33331V6.33331V6.33331V6.33331V6.33331V6.33331V6.33331V6.33331V6.33331V6.33331" fill="var(--fill-0, #797C73)"/>
</g>
</svg>
