<svg preserveAspectRatio="none" width="100%" height="100%" overflow="visible" style="display: block;" viewBox="0 0 7.76919 12.6666" fill="none" xmlns="http://www.w3.org/2000/svg">
<g id="Container">
<path id="Icon" d="M7.76919 8.76279C7.76919 9.84569 7.39248 10.7671 6.63907 11.5269C5.88565 12.2867 4.96963 12.6666 3.89101 12.6666C2.8081 12.6666 1.88888 12.2867 1.13333 11.5269C0.377776 10.7671 0 9.84569 0 8.76279V2.76921C0 1.99999 0.267092 1.34615 0.801277 0.807687C1.33546 0.269229 1.98717 0 2.75639 0C3.52562 0 4.17732 0.269229 4.71151 0.807687C5.24569 1.34615 5.51278 1.99999 5.51278 2.76921V8.44228C5.51278 8.89356 5.35531 9.27881 5.04035 9.59804C4.7254 9.91727 4.34228 10.0769 3.89101 10.0769C3.43973 10.0769 3.05448 9.91833 2.73525 9.60124C2.41602 9.28415 2.2564 8.89783 2.2564 8.44228V2.58974H3.25638V8.44228C3.25638 8.62091 3.31642 8.77134 3.43651 8.89357C3.5566 9.01579 3.70596 9.0769 3.88459 9.0769C4.06323 9.0769 4.21259 9.01579 4.33268 8.89357C4.45277 8.77134 4.51281 8.62091 4.51281 8.44228V2.7628C4.50597 2.27049 4.3346 1.85361 3.99871 1.51216C3.66281 1.1707 3.2487 0.999976 2.75639 0.999976C2.26408 0.999976 1.84827 1.17177 1.50895 1.51536C1.16963 1.85895 0.999976 2.2769 0.999976 2.76921V8.76279C0.993138 9.56877 1.27177 10.2542 1.83587 10.8192C2.39998 11.3842 3.08502 11.6666 3.89101 11.6666C4.68588 11.6666 5.36088 11.3842 5.91601 10.8192C6.47114 10.2542 6.75554 9.56877 6.76921 8.76279V2.58974H7.76919V8.76279V8.76279" fill="var(--fill-0, #797C73)"/>
</g>
</svg>
