<svg preserveAspectRatio="none" width="100%" height="100%" overflow="visible" style="display: block;" viewBox="0 0 14.8398 11.4103" fill="none" xmlns="http://www.w3.org/2000/svg">
<g id="Container">
<path id="Icon" d="M5.03205 11.4103C4.79808 11.4103 4.60069 11.3299 4.4399 11.1691C4.27911 11.0083 4.19872 10.8109 4.19872 10.5769V8.91026H6.50641V6.20193C5.97756 6.31304 5.43563 6.29621 4.88061 6.15145C4.32559 6.00668 3.86752 5.75214 3.50641 5.38783V4.21475H2.32372L0 1.89103C0.478633 1.45513 1.0219 1.12928 1.62981 0.913462C2.23772 0.697651 2.86325 0.589745 3.50641 0.589745C4.04167 0.589745 4.56117 0.665599 5.0649 0.817308C5.56864 0.969017 6.04914 1.20673 6.50641 1.53045V0H14.8398V9.7436C14.8398 10.2137 14.6795 10.609 14.359 10.9295C14.0385 11.25 13.6432 11.4103 13.1731 11.4103H5.03205V11.4103M7.33975 8.91026H12.3397V9.7436C12.3397 9.97971 12.4196 10.1776 12.5793 10.3373C12.7391 10.4971 12.937 10.5769 13.1731 10.5769C13.4092 10.5769 13.6071 10.4971 13.7668 10.3373C13.9266 10.1776 14.0064 9.97971 14.0064 9.7436V0.833338H7.33975V2.16667L11.9231 6.75V7.33975H11.3333L8.79808 4.80449L8.32693 5.27565C8.16453 5.43804 8.00508 5.57426 7.84856 5.6843C7.69204 5.79434 7.52244 5.89103 7.33975 5.97437V8.91026V8.91026M2.67949 3.38141H4.33975V5.01282C4.62394 5.18804 4.88836 5.30716 5.13302 5.37019C5.37767 5.43323 5.61325 5.46474 5.83975 5.46474C6.22329 5.46474 6.57025 5.40011 6.88061 5.27083C7.19097 5.14156 7.48184 4.94124 7.75321 4.66987L8.20833 4.21475L6.75321 2.75962C6.30769 2.31411 5.80823 1.97997 5.25481 1.75722C4.70139 1.53446 4.11859 1.42308 3.50641 1.42308C3.10043 1.42308 2.70567 1.47597 2.32212 1.58174C1.93858 1.68751 1.59509 1.82479 1.29167 1.99359L2.67949 3.38141V3.38141M11.5064 9.7436H5.03205V10.5769V10.5769V10.5769H11.7596C11.6645 10.4626 11.5986 10.3333 11.5617 10.1891C11.5248 10.0449 11.5064 9.89637 11.5064 9.7436V9.7436M5.03205 10.5769C5.03205 10.4626 5.03205 10.3333 5.03205 10.1891C5.03205 10.0449 5.03205 9.89637 5.03205 9.7436V9.7436C5.03205 9.88248 5.03205 10.0214 5.03205 10.1603C5.03205 10.2992 5.03205 10.438 5.03205 10.5769V10.5769V10.5769V10.5769" fill="var(--fill-0, #635D57)"/>
</g>
</svg>
