<svg preserveAspectRatio="none" width="100%" height="100%" overflow="visible" style="display: block;" viewBox="0 0 15 15" fill="none" xmlns="http://www.w3.org/2000/svg">
<g id="Container">
<path id="Icon" d="M2.17949 15C1.80663 15 1.48905 14.8689 1.22676 14.6066C0.964477 14.3443 0.833333 14.0267 0.833333 13.6539V4.38623C0.594017 4.28687 0.395299 4.12634 0.237179 3.90465C0.0790598 3.68297 0 3.42843 0 3.14103V1.34616C0 0.973292 0.131143 0.655717 0.39343 0.39343C0.655717 0.131143 0.973292 0 1.34616 0H13.6539C14.0267 0 14.3443 0.131143 14.6066 0.39343C14.8689 0.655717 15 0.973292 15 1.34616V3.14103C15 3.42843 14.9209 3.68297 14.7628 3.90465C14.6047 4.12634 14.406 4.28687 14.1667 4.38623V13.6539C14.1667 14.0267 14.0355 14.3443 13.7732 14.6066C13.511 14.8689 13.1934 15 12.8205 15H2.17949V15M1.66667 4.48719V13.5737C1.66667 13.7447 1.7281 13.8862 1.85097 13.9984C1.97383 14.1106 2.12607 14.1667 2.30769 14.1667H12.8205C12.9701 14.1667 13.093 14.1186 13.1891 14.0224C13.2853 13.9263 13.3333 13.8034 13.3333 13.6539V4.48719H1.66667V4.48719M1.34616 3.65385H13.6539C13.8034 3.65385 13.9263 3.60577 14.0224 3.50962C14.1186 3.41347 14.1667 3.2906 14.1667 3.14103V1.34616C14.1667 1.19658 14.1186 1.07372 14.0224 0.977568C13.9263 0.881415 13.8034 0.833338 13.6539 0.833338H1.34616C1.19658 0.833338 1.07372 0.881415 0.977568 0.977568C0.881415 1.07372 0.833338 1.19658 0.833338 1.34616V3.14103C0.833338 3.2906 0.881415 3.41347 0.977568 3.50962C1.07372 3.60577 1.19658 3.65385 1.34616 3.65385V3.65385M5.32052 8.22116H9.67949V7.50001H5.32052V8.22116V8.22116M7.50001 9.32693V9.32693V9.32693V9.32693V9.32693V9.32693V9.32693V9.32693V9.32693V9.32693" fill="var(--fill-0, #635D57)"/>
</g>
</svg>
