<svg preserveAspectRatio="none" width="100%" height="100%" overflow="visible" style="display: block;" viewBox="0 0 16.6667 14.359" fill="none" xmlns="http://www.w3.org/2000/svg">
<g id="Container">
<path id="Icon" d="M8.30129 14.359C7.62394 13.8953 6.90171 13.539 6.13462 13.2901C5.36753 13.0411 4.57265 12.9167 3.75001 12.9167C3.31624 12.9167 2.89023 12.953 2.47196 13.0257C2.05369 13.0983 1.64637 13.2148 1.25 13.375C0.94765 13.4957 0.663729 13.4621 0.398237 13.2741C0.132746 13.086 0 12.8269 0 12.4968V4.47436C0 4.26816 0.0568909 4.08227 0.170673 3.91667C0.284455 3.75107 0.43376 3.63355 0.618589 3.5641C1.10791 3.34829 1.61699 3.18643 2.14584 3.07853C2.67468 2.97062 3.20941 2.91667 3.75001 2.91667C4.56624 2.91667 5.35711 3.0422 6.1226 3.29327C6.88809 3.54434 7.62501 3.8782 8.33334 4.29487V13.3526C9.03099 12.9081 9.77137 12.5855 10.5545 12.3846C11.3376 12.1838 12.125 12.0833 12.9167 12.0833C13.3739 12.0833 13.7887 12.109 14.1611 12.1603C14.5334 12.2115 14.9306 12.2992 15.3526 12.4231C15.4701 12.4551 15.5796 12.4578 15.6811 12.4311C15.7826 12.4044 15.8333 12.3162 15.8333 12.1667V3.44872C15.9135 3.46474 15.9901 3.48691 16.0633 3.51523C16.1365 3.54354 16.2062 3.5812 16.2724 3.62821C16.4039 3.69765 16.5024 3.79648 16.5681 3.92468C16.6338 4.05289 16.6667 4.19338 16.6667 4.34616V12.4648C16.6667 12.7949 16.5259 13.0513 16.2444 13.234C15.9629 13.4167 15.6549 13.453 15.3205 13.343C14.9348 13.1934 14.5409 13.0849 14.1386 13.0176C13.7364 12.9503 13.3291 12.9167 12.9167 12.9167C12.0833 12.9167 11.2724 13.0331 10.484 13.266C9.69552 13.4989 8.96795 13.8633 8.30129 14.359V14.359M10 11.25V4.16667L14.1667 0V7.50001L10 11.25V11.25M7.5 12.9567V4.78686C6.91346 4.46421 6.30689 4.21074 5.68029 4.02645C5.05369 3.84215 4.41026 3.75001 3.75001 3.75001C3.23612 3.75001 2.76015 3.79595 2.32212 3.88783C1.88409 3.97971 1.48932 4.09616 1.13782 4.23719C1.05235 4.26924 0.980239 4.31464 0.921479 4.3734C0.862719 4.43216 0.833338 4.50428 0.833338 4.58975V12.2035C0.833338 12.3531 0.884086 12.4412 0.985581 12.468C1.08708 12.4947 1.19658 12.4867 1.3141 12.4439C1.65064 12.3275 2.01576 12.2383 2.40946 12.1763C2.80316 12.1143 3.25001 12.0833 3.75001 12.0833C4.49573 12.0833 5.19632 12.1704 5.85176 12.3446C6.50721 12.5187 7.05662 12.7228 7.5 12.9567V12.9567M7.5 12.9567V12.9567V12.9567V12.9567V12.9567V12.9567V12.9567V4.78686V4.78686V4.78686V4.78686V4.78686V4.78686V4.78686V12.9567V12.9567" fill="var(--fill-0, #635D57)"/>
</g>
</svg>
