<svg preserveAspectRatio="none" width="100%" height="100%" overflow="visible" style="display: block;" viewBox="0 0 15 15" fill="none" xmlns="http://www.w3.org/2000/svg">
<g id="Container">
<path id="Icon" d="M7.46795 15C6.44659 15 5.48238 14.8026 4.57532 14.4079C3.66827 14.0131 2.87634 13.4773 2.19952 12.8005C1.5227 12.1237 0.986913 11.3291 0.592148 10.4167C0.197383 9.50428 0 8.53206 0 7.50001C0 6.45406 0.201656 5.4749 0.604968 4.5625C1.00828 3.65011 1.55796 2.85631 2.25401 2.18109C2.95006 1.50588 3.76656 0.973558 4.70353 0.584134C5.6405 0.194711 6.63889 0 7.69872 0C8.67095 0 9.59669 0.164263 10.476 0.492789C11.3552 0.821315 12.129 1.27698 12.7973 1.85978C13.4656 2.44258 13.9997 3.13702 14.3998 3.94311C14.8 4.7492 15 5.62821 15 6.58013C15 7.86753 14.6287 8.89825 13.8862 9.67229C13.1437 10.4463 12.1261 10.8333 10.8333 10.8333H9.35577C9.00642 10.8333 8.71395 10.9535 8.47837 11.1939C8.2428 11.4343 8.12501 11.7244 8.12501 12.0641C8.12501 12.4124 8.22918 12.7081 8.43751 12.9511C8.64584 13.1942 8.75001 13.4744 8.75001 13.7917C8.75001 14.1977 8.6365 14.5005 8.40946 14.7003C8.18243 14.9001 7.8686 15 7.46795 15V15M7.50001 7.50001V7.50001V7.50001V7.50001V7.50001V7.50001V7.50001V7.50001V7.50001V7.50001V7.50001V7.50001V7.50001V7.50001V7.50001V7.50001V7.50001M2.91667 7.91667C3.14958 7.91667 3.34669 7.83601 3.50802 7.67469C3.66934 7.51336 3.75001 7.31625 3.75001 7.08334C3.75001 6.85043 3.66934 6.65332 3.50802 6.49199C3.34669 6.33067 3.14958 6.25 2.91667 6.25C2.68376 6.25 2.48665 6.33067 2.32532 6.49199C2.164 6.65332 2.08334 6.85043 2.08334 7.08334C2.08334 7.31625 2.164 7.51336 2.32532 7.67469C2.48665 7.83601 2.68376 7.91667 2.91667 7.91667V7.91667M5.41667 4.58334C5.64958 4.58334 5.84669 4.50268 6.00802 4.34135C6.16935 4.18003 6.25001 3.98291 6.25001 3.75001C6.25001 3.5171 6.16935 3.31998 6.00802 3.15866C5.84669 2.99733 5.64958 2.91667 5.41667 2.91667C5.18376 2.91667 4.98665 2.99733 4.82532 3.15866C4.664 3.31998 4.58334 3.5171 4.58334 3.75001C4.58334 3.98291 4.664 4.18003 4.82532 4.34135C4.98665 4.50268 5.18376 4.58334 5.41667 4.58334V4.58334M9.58334 4.58334C9.81625 4.58334 10.0134 4.50268 10.1747 4.34135C10.336 4.18003 10.4167 3.98291 10.4167 3.75001C10.4167 3.5171 10.336 3.31998 10.1747 3.15866C10.0134 2.99733 9.81625 2.91667 9.58334 2.91667C9.35043 2.91667 9.15332 2.99733 8.99199 3.15866C8.83066 3.31998 8.75 3.5171 8.75 3.75001C8.75 3.98291 8.83066 4.18003 8.99199 4.34135C9.15332 4.50268 9.35043 4.58334 9.58334 4.58334V4.58334M12.0833 7.91667C12.3162 7.91667 12.5134 7.83601 12.6747 7.67469C12.836 7.51336 12.9167 7.31625 12.9167 7.08334C12.9167 6.85043 12.836 6.65332 12.6747 6.49199C12.5134 6.33067 12.3162 6.25 12.0833 6.25C11.8504 6.25 11.6533 6.33067 11.492 6.49199C11.3307 6.65332 11.25 6.85043 11.25 7.08334C11.25 7.31625 11.3307 7.51336 11.492 7.67469C11.6533 7.83601 11.8504 7.91667 12.0833 7.91667V7.91667M7.46795 14.1667C7.61432 14.1667 7.7257 14.1346 7.80209 14.0705C7.87848 14.0064 7.91667 13.9135 7.91667 13.7917C7.91667 13.5972 7.81251 13.3894 7.60417 13.1683C7.39584 12.9471 7.29167 12.5833 7.29167 12.0769C7.29167 11.4722 7.49306 10.9749 7.89584 10.5849C8.29862 10.195 8.79167 10 9.375 10H10.8333C11.8782 10 12.695 9.69258 13.2837 9.07773C13.8723 8.46288 14.1667 7.63035 14.1667 6.58013C14.1667 4.88889 13.5163 3.50829 12.2156 2.43831C10.9148 1.36833 9.40919 0.833338 7.69872 0.833338C5.77778 0.833338 4.15332 1.47917 2.82533 2.77084C1.49733 4.06251 0.833338 5.63889 0.833338 7.50001C0.833338 9.34723 1.48264 10.9201 2.78126 12.2188C4.07987 13.5174 5.6421 14.1667 7.46795 14.1667V14.1667" fill="var(--fill-0, #635D57)"/>
</g>
</svg>
