<svg preserveAspectRatio="none" width="100%" height="100%" overflow="visible" style="display: block;" viewBox="0 0 15 6.79488" fill="none" xmlns="http://www.w3.org/2000/svg">
<g id="Container">
<path id="Icon" d="M6.34616 6.79488H3.39744C2.45748 6.79488 1.65625 6.46372 0.993752 5.80139C0.33125 5.13907 0 4.33805 0 3.39835C0 2.45864 0.33125 1.65732 0.993752 0.994392C1.65625 0.331464 2.45748 0 3.39744 0H6.34616V0.833338H3.39744C2.69231 0.833338 2.08868 1.08441 1.58654 1.58654C1.08441 2.08868 0.833338 2.69231 0.833338 3.39744C0.833338 4.10257 1.08441 4.7062 1.58654 5.20834C2.08868 5.71047 2.69231 5.96154 3.39744 5.96154H6.34616V6.79488V6.79488M4.58334 3.81411V2.98077H10.4167V3.81411H4.58334V3.81411M8.65385 6.79488V5.96154H11.6026C12.3077 5.96154 12.9113 5.71047 13.4135 5.20834C13.9156 4.7062 14.1667 4.10257 14.1667 3.39744C14.1667 2.69231 13.9156 2.08868 13.4135 1.58654C12.9113 1.08441 12.3077 0.833338 11.6026 0.833338H8.65385V0H11.6026C12.5425 0 13.3438 0.331162 14.0063 0.993487C14.6688 1.65581 15 2.45683 15 3.39653C15 4.33624 14.6688 5.13756 14.0063 5.80049C13.3438 6.46342 12.5425 6.79488 11.6026 6.79488H8.65385V6.79488" fill="var(--fill-0, #635D57)"/>
</g>
</svg>
